<?xml version="1.0" encoding="UTF-8" standalone="no"?>
<!-- Created with Inkscape (http://www.inkscape.org/) -->

<svg
   width="512"
   height="512"
   viewBox="0 0 512 512"
   version="1.1"
   id="svg1"
   xmlns="http://www.w3.org/2000/svg"
   xmlns:svg="http://www.w3.org/2000/svg">
  <defs
     id="defs1" />
  <g
     id="layer1" />
  <g
     id="layer2">
    <g
       id="g13"
       transform="translate(70.075942,-14.562389)">
      <g
         id="g15"
         transform="translate(18.18298,-3.2101865)">
        <g
           id="g14"
           transform="translate(-23.376613,16.351435)">
          <path
             d="m 215.62109,265.73437 c -0.0464,0.35604 -0.0607,0.74804 -0.10937,1.10157 -0.30349,2.20454 -0.74837,4.25054 -1.13867,6.35742 v 4.6582 h -0.83399 c -0.007,0.0313 -0.0106,0.0664 -0.0176,0.0977 -0.39789,1.77764 -0.82875,3.51962 -1.29296,5.22265 -0.46422,1.70304 -0.96166,3.36767 -1.49219,4.9961 -0.53053,1.62842 -1.09456,3.21962 -1.69141,4.77344 -0.59684,1.55382 -1.22551,3.06961 -1.88867,4.54882 -0.66316,1.47922 -1.36037,2.92157 -2.08984,4.32618 -0.72948,1.40461 -1.49132,2.77156 -2.28711,4.10156 -0.79579,1.33 -1.62618,2.62351 -2.48828,3.8789 -0.86211,1.2554 -1.75713,2.47351 -2.68555,3.6543 -0.92842,1.18079 -1.89003,2.3235 -2.88477,3.42969 -0.99474,1.10619 -2.02293,2.17545 -3.08398,3.20703 -1.05369,1.03158 -2.14526,2.03094 -3.27539,2.99805 -1.13014,0.96711 -2.29733,1.90205 -3.50391,2.80468 -1.20658,0.90264 -2.45134,1.77317 -3.73437,2.61133 -1.28303,0.83816 -2.60537,1.64429 -3.96485,2.41797 -1.35947,0.77369 -2.75743,1.5154 -4.19336,2.22461 -1.43592,0.70921 -2.9095,1.38651 -4.42187,2.03125 -1.51237,0.64474 -3.06352,1.25567 -4.65235,1.83594 -1.58882,0.58026 -3.21559,1.12874 -4.88085,1.64453 -1.66527,0.51579 -3.36962,0.99985 -5.11133,1.45117 -1.74172,0.45132 -3.52168,0.87097 -5.33985,1.25781 -3.63632,0.77369 -7.42507,1.41781 -11.36718,1.9336 -3.94212,0.51579 -8.03725,0.90226 -12.28516,1.16015 -4.24791,0.2579 -8.64747,0.38672 -13.20117,0.38672 H 68.554687 V 139.53125 h 16.339844 v -29.35547 h -52.0625 v 264.02734 h 73.390629 c 3.18316,0 6.31441,-0.0436 9.39257,-0.12695 3.07817,-0.0833 6.10301,-0.20829 9.07618,-0.375 2.97316,-0.16671 5.89355,-0.37493 8.76171,-0.625 2.86817,-0.25006 5.6841,-0.54158 8.44727,-0.875 2.76317,-0.33342 5.47465,-0.70822 8.13281,-1.125 2.65817,-0.41678 5.26324,-0.87487 7.81641,-1.375 2.55316,-0.50013 5.05379,-1.04151 7.50195,-1.625 2.44817,-0.58349 4.84434,-1.21011 7.1875,-1.87695 2.34317,-0.66685 4.63293,-1.3748 6.8711,-2.125 2.23816,-0.7502 4.42347,-1.54145 6.55664,-2.375 2.13316,-0.83356 4.21402,-1.71004 6.24218,-2.62695 2.02817,-0.91691 4.00458,-1.87474 5.92774,-2.875 1.92316,-1.00027 3.79316,-2.04138 5.61133,-3.125 1.81816,-1.08363 3.58371,-2.20998 5.29687,-3.37696 1.71316,-1.16697 3.37426,-2.37467 4.98242,-3.625 1.60817,-1.25033 3.16286,-2.54326 4.66602,-3.87695 1.50316,-1.33369 2.95993,-2.71448 4.36914,-4.14258 1.40921,-1.42809 2.77262,-2.90328 4.08789,-4.42578 1.31527,-1.5225 2.58337,-3.09207 3.80469,-4.70898 1.22132,-1.61692 2.39411,-3.28087 3.52148,-4.99219 1.12737,-1.71132 2.20877,-3.46966 3.24219,-5.27539 1.03342,-1.80573 2.01951,-3.65846 2.95898,-5.5586 0.93948,-1.90013 1.83221,-3.84725 2.67774,-5.84179 0.84553,-1.99455 1.6449,-4.038 2.39648,-6.12696 0.34659,-0.9633 0.648,-1.97169 0.97461,-2.95507 -1.26496,-0.58618 -2.56398,-1.15781 -3.75195,-1.7754 -1.93687,-1.0069 -3.7717,-2.05607 -5.50391,-3.14648 -1.73221,-1.09041 -3.36307,-2.22257 -4.89062,-3.39648 -1.52756,-1.17391 -2.95249,-2.38908 -4.27539,-3.64649 -1.3229,-1.25741 -2.56317,-2.57683 -3.72071,-3.95703 -1.15753,-1.3802 -2.23243,-2.82122 -3.22461,-4.32422 -0.99217,-1.50299 -1.9017,-3.06757 -2.72851,-4.69336 -0.82681,-1.62579 -1.57097,-3.31391 -2.23242,-5.0625 -0.296,-0.78249 -0.51446,-1.6226 -0.77735,-2.42969 z"
             style="font-size:362.174px;line-height:1.25"
             id="path9" />
          <path
             d="m 84.894531,76.902344 v 33.273436 h 21.328129 c 1.98627,0 3.91413,0.046 5.85937,0.0781 V 99.783203 h 99.86914 V 76.902344 Z"
             style="font-size:275.648px;line-height:1.25;fill:#353535;stroke-width:0.999997"
             id="path11" />
          <path
             d="m 112.08203,139.54297 c -0.12978,-2.1e-4 -0.24692,-0.0117 -0.37695,-0.0117 H 84.894531 V 277.85156 H 213.53906 c 0.33258,-1.4913 0.54801,-3.11447 0.83399,-4.6582 v -11.81055 c -0.35091,-1.45715 -0.69753,-2.91788 -0.95118,-4.44726 -0.10549,-0.63613 -0.1496,-1.31818 -0.23828,-1.9668 H 112.08203 V 182.1543 h 92.82813 c -0.68374,-1.29466 -1.38958,-2.5646 -2.13086,-3.79493 -0.79579,-1.32079 -1.62618,-2.60491 -2.48828,-3.85156 -0.86211,-1.24665 -1.75713,-2.45445 -2.68555,-3.62695 -0.92842,-1.1725 -1.89003,-2.30789 -2.88477,-3.40625 -0.99474,-1.09836 -2.02293,-2.16133 -3.08398,-3.18555 -1.05369,-1.03158 -2.14526,-2.03094 -3.27539,-2.99804 -0.81316,-0.69586 -1.66876,-1.35511 -2.52149,-2.01758 h -73.75781 z"
             style="font-size:275.648px;line-height:1.25;fill:#353535;stroke-width:0.999997"
             id="path10" />
          <path
             d="m 246.72656,298.16602 c 0.79743,0.36952 1.53721,0.7621 2.36524,1.11914 2.14152,0.92341 4.38624,1.80462 6.73242,2.64453 2.34618,0.83991 4.79486,1.63812 7.3457,2.39453 2.55084,0.75641 5.20349,1.47162 7.95899,2.14453 2.75549,0.67291 5.61211,1.30512 8.57226,1.89453 l 19.33399,3.77149 c 2.01709,0.40603 3.96323,0.83812 5.83789,1.29492 1.87465,0.45679 3.67794,0.93776 5.41015,1.44531 1.73221,0.50755 3.39265,1.04131 4.98242,1.59961 1.58978,0.5583 3.10736,1.14094 4.55469,1.75 1.44733,0.60906 2.82402,1.24448 4.12891,1.9043 1.30489,0.65981 2.53872,1.34412 3.70117,2.05468 1.16245,0.71057 2.25343,1.44767 3.27344,2.20899 1.02001,0.76132 1.97009,1.5473 2.84765,2.35937 0.89067,0.81208 1.72458,1.66403 2.50391,2.55469 0.77933,0.89067 1.50388,1.81981 2.17188,2.78906 0.66799,0.96926 1.27927,1.97755 1.83593,3.02539 0.55667,1.04784 1.05858,2.13529 1.50391,3.26172 0.44533,1.12643 0.83397,2.29303 1.16797,3.49805 0.334,1.20502 0.61327,2.44882 0.83594,3.73242 0.22266,1.28361 0.38866,2.60656 0.5,3.96875 0.11133,1.36219 0.16796,2.7643 0.16796,4.20508 0,1.65035 -0.0766,3.2532 -0.23046,4.80859 -0.15391,1.55539 -0.38556,3.06301 -0.69336,4.52344 -0.30781,1.46043 -0.6926,2.87281 -1.1543,4.23828 -0.46171,1.36547 -0.99963,2.68457 -1.61524,3.95508 -0.6156,1.27051 -1.30861,2.49242 -2.07812,3.66797 -0.76951,1.17555 -1.61565,2.30418 -2.53906,3.38476 -0.92341,1.08059 -1.92464,2.11399 -3.00196,3.09961 -1.07731,0.98563 -2.23167,1.92379 -3.46289,2.81446 -1.23121,0.89066 -2.52616,1.72457 -3.88672,2.5039 -1.36055,0.77933 -2.78549,1.50388 -4.27539,2.17188 -1.48989,0.668 -3.04482,1.27927 -4.66406,1.83594 -1.61924,0.55666 -3.30415,1.05857 -5.05273,1.5039 -1.74859,0.44533 -3.56153,0.83397 -5.43946,1.16797 -1.87792,0.334 -3.82085,0.61327 -5.82812,0.83594 -2.00727,0.22266 -4.07823,0.38867 -6.21484,0.5 -2.13662,0.11133 -4.33756,0.16797 -6.60352,0.16797 -2.98635,0 -5.98746,-0.11454 -9,-0.34375 -3.01254,-0.22922 -6.03743,-0.57282 -9.07617,-1.03125 -3.03874,-0.45843 -6.09132,-1.03111 -9.15625,-1.71875 -3.06494,-0.68765 -6.14129,-1.49135 -9.23242,-2.40821 -3.09113,-0.91686 -6.20035,-1.94445 -9.32422,-3.08398 -3.12388,-1.13953 -6.2633,-2.38976 -9.41992,-3.75195 -3.15662,-1.3622 -6.33017,-2.83702 -9.51954,-4.42188 -3.18936,-1.58486 -6.39507,-3.28036 -9.61718,-5.08789 v 32.69336 c 3.35309,1.23121 6.67655,2.38621 9.9707,3.4668 3.29415,1.08058 6.55971,2.08566 9.79492,3.01562 3.23521,0.92996 6.44092,1.78512 9.61719,2.56445 3.17627,0.77934 6.32213,1.48263 9.43945,2.11133 3.14352,0.62871 6.24114,1.17887 9.29297,1.65039 3.05184,0.47153 6.05938,0.86534 9.01953,1.17969 2.96015,0.31435 5.87373,0.54986 8.74219,0.70703 2.86846,0.15718 5.69197,0.23633 8.46875,0.23633 3.68054,0 7.24916,-0.092 10.70703,-0.27539 3.45788,-0.18337 6.80386,-0.45943 10.03906,-0.82617 3.23521,-0.36675 6.35856,-0.82489 9.3711,-1.375 3.01254,-0.55012 5.9152,-1.19229 8.70508,-1.92578 2.78987,-0.73349 5.46794,-1.55775 8.03515,-2.47461 2.56721,-0.91686 5.02265,-1.92516 7.36719,-3.02539 2.34454,-1.10024 4.57734,-2.29257 6.69922,-3.57618 2.12188,-1.2836 4.13399,-2.65802 6.0332,-4.125 1.91231,-1.46697 3.70368,-3.02126 5.37695,-4.66015 1.67328,-1.63889 3.22788,-3.36303 4.66211,-5.17383 1.43424,-1.8108 2.74817,-3.70674 3.94336,-5.68945 1.1952,-1.98271 2.27236,-4.05241 3.22852,-6.20703 0.95615,-2.15463 1.79265,-4.39417 2.50976,-6.72071 0.71712,-2.32653 1.3149,-4.73983 1.79297,-7.23828 0.47808,-2.49844 0.83518,-5.08355 1.07422,-7.7539 0.23904,-2.67036 0.35938,-5.42531 0.35938,-8.26758 0,-2.38384 -0.0888,-4.70802 -0.26563,-6.97071 -0.17682,-2.26268 -0.44127,-4.46394 -0.79492,-6.60546 -0.35365,-2.14153 -0.7957,-4.22378 -1.32617,-6.24415 -0.53047,-2.02036 -1.15013,-3.97969 -1.85742,-5.8789 -0.7073,-1.89921 -1.50261,-3.73757 -2.38672,-5.51563 -0.88412,-1.77805 -1.85703,-3.49544 -2.91797,-5.15234 -1.06094,-1.6569 -2.2095,-3.25332 -3.44727,-4.78906 -1.23776,-1.53574 -2.56393,-3.0112 -3.97851,-4.42578 -1.40149,-1.42769 -2.90173,-2.80147 -4.49805,-4.1211 -1.59632,-1.31962 -3.28892,-2.58531 -5.08008,-3.79687 -1.79115,-1.21157 -3.68003,-2.36915 -5.66601,-3.47266 -1.98599,-1.10351 -4.06918,-2.15299 -6.25,-3.14844 -2.18082,-0.99544 -4.46029,-1.93682 -6.83594,-2.82422 -2.37565,-0.88739 -4.84749,-1.72066 -7.41797,-2.5 -2.57048,-0.77933 -5.23859,-1.5045 -8.00391,-2.17578 -2.76531,-0.67127 -5.62774,-1.28834 -8.58789,-1.85156 l -19.17578,-3.92969 c -4.34854,-0.81207 -8.34956,-1.68654 -12.0039,-2.62304 -3.65435,-0.93651 -6.96173,-1.93516 -9.92188,-2.9961 -1.48007,-0.53047 -2.87316,-1.07709 -4.17969,-1.63867 -1.30652,-0.56158 -2.52717,-1.13778 -3.66015,-1.73047 -1.13298,-0.59268 -2.17925,-1.20042 -3.13867,-1.82422 -0.95943,-0.62379 -1.83131,-1.26306 -2.61719,-1.91797 -0.008,-0.007 -0.0138,-0.0148 -0.0215,-0.0215 -0.0336,0.31975 -0.0529,0.65436 -0.0879,0.97266 -0.28184,2.56099 -0.61053,5.07443 -0.98633,7.54101 -0.37579,2.46659 -0.79783,4.88564 -1.26757,7.25781 -0.46974,2.37218 -0.9871,4.69684 -1.55078,6.97461 -0.56369,2.27777 -1.1744,4.50805 -1.83204,6.69141 -0.35437,1.17652 -0.75702,2.30402 -1.13867,3.45313 z"
             style="font-size:321.897px;line-height:1.25;fill:#5f5f5f;stroke-width:0.999999"
             id="path13" />
          <path
             d="m 253.46289,217.38477 c 0.52325,-0.54397 1.01547,-1.10655 1.58398,-1.62305 1.02001,-0.92669 2.11358,-1.81017 3.2793,-2.64844 1.17882,-0.83827 2.41909,-1.62393 3.7207,-2.35742 1.30162,-0.73349 2.66349,-1.41426 4.0879,-2.04297 1.4244,-0.6287 2.91178,-1.20459 4.45898,-1.72852 1.5472,-0.52392 3.15422,-0.99687 4.82422,-1.41601 1.66999,-0.41914 3.40252,-0.78526 5.19531,-1.09961 1.79279,-0.31435 3.64692,-0.57559 5.5625,-0.78516 1.91559,-0.20956 3.89326,-0.36787 5.93164,-0.47265 2.03838,-0.10479 4.13766,-0.15625 6.29883,-0.15625 2.48862,0 5.00069,0.0888 7.53516,0.26562 2.53446,0.17683 5.09156,0.44128 7.67187,0.79492 2.58031,0.35365 5.18244,0.79571 7.80859,1.32618 2.62616,0.53047 5.27528,1.15013 7.94727,1.85742 2.67199,0.70729 5.3874,1.50582 8.14453,2.39648 2.75713,0.89067 5.55617,1.87323 8.39844,2.94727 2.84227,1.07403 5.72689,2.23868 8.6543,3.49609 2.9274,1.25741 5.89761,2.60805 8.91015,4.04883 v -30.96484 c -2.98634,-0.99545 -5.95655,-1.92781 -8.91015,-2.79883 -2.9536,-0.87102 -5.88969,-1.68115 -8.81055,-2.42774 -2.92086,-0.74658 -5.82673,-1.43058 -8.71484,-2.05273 -2.88812,-0.62216 -5.75987,-1.18196 -8.61524,-1.67969 -2.85536,-0.49772 -5.69622,-0.93335 -8.52539,-1.30664 -2.82917,-0.37329 -5.64624,-0.68473 -8.44922,-0.93359 -2.80297,-0.24886 -5.59236,-0.43417 -8.36914,-0.5586 -2.77678,-0.12443 -5.54043,-0.1875 -8.29101,-0.1875 -3.20902,0 -6.33204,0.0926 -9.36915,0.2793 -3.0371,0.18665 -5.98832,0.4685 -8.85351,0.8418 -2.86519,0.37329 -5.64461,0.8385 -8.33789,1.39843 -2.69328,0.55994 -5.3009,1.21436 -7.82227,1.96094 -2.52136,0.74659 -4.95718,1.5863 -7.30664,2.51953 -2.07564,0.82448 -4.05657,1.75056 -5.99804,2.72071 0.26096,0.80821 0.54734,1.59044 0.79492,2.41211 0.65441,2.17184 1.26329,4.39045 1.82422,6.65625 0.56092,2.26579 1.07358,4.57775 1.54101,6.9375 0.46744,2.35974 0.88973,4.76701 1.26367,7.2207 0.35691,2.34189 0.6638,4.73269 0.93555,7.16016 z"
             style="font-size:321.897px;line-height:1.25;fill:#5f5f5f;stroke-width:0.999999"
             id="path12" />
        </g>
        <text
           xml:space="preserve"
           style="font-style:normal;font-weight:normal;font-size:30.6975px;line-height:1.25;font-family:sans-serif;fill:#000000;fill-opacity:1;stroke:none;stroke-width:1"
           x="68.320908"
           y="351.39767"
           id="text14"
           transform="scale(1.3030398,0.76743627)"><tspan
             id="tspan14"
             x="68.320908"
             y="351.39767"
             style="font-style:normal;font-variant:normal;font-weight:normal;font-stretch:normal;font-family:Chandas;-inkscape-font-specification:Chandas;stroke-width:1">TCH</tspan></text>
        <text
           xml:space="preserve"
           style="font-style:normal;font-weight:normal;font-size:26.4087px;line-height:1.25;font-family:sans-serif;fill:#000000;fill-opacity:1;stroke:none;stroke-width:0.999993"
           x="31.501043"
           y="467.59888"
           id="text15"
           transform="scale(1.3367938,0.74805852)"><tspan
             id="tspan15"
             x="31.501043"
             y="467.59888"
             style="stroke-width:0.999993">ESERT</tspan></text>
        <text
           xml:space="preserve"
           style="font-style:normal;font-weight:normal;font-size:26.4087px;line-height:1.25;font-family:sans-serif;fill:#000000;fill-opacity:1;stroke:none;stroke-width:0.999993"
           x="172.12221"
           y="379.10294"
           id="text15-6"
           transform="scale(1.3367938,0.74805852)"><tspan
             id="tspan15-1"
             x="172.12221"
             y="379.10294"
             style="stroke-width:0.999993">TUDIO</tspan></text>
        <ellipse
           style="fill:none;fill-opacity:1;stroke:#000000;stroke-width:28.545;stroke-linejoin:round;stroke-dasharray:none;paint-order:markers fill stroke"
           id="path15"
           cx="168.60049"
           cy="273.83463"
           rx="238.58226"
           ry="238.23294" />
      </g>
    </g>
  </g>
</svg>
